<svg id="Layer_1" data-name="Layer 1" xmlns="http://www.w3.org/2000/svg" viewBox="0 0 357.95 128.95"><defs><style>.cls-1{fill:#007dc3;}.cls-2{fill:#fbb034;}.cls-3{fill:#54b948;}</style></defs><title>Inmar Logo Horizontal</title><path class="cls-1" d="M35.58,93.71A48.79,48.79,0,0,1,42.26,29a49.72,49.72,0,0,0-4.57,2.93,48.79,48.79,0,1,0,61.45,75.61A48.79,48.79,0,0,1,35.58,93.71Z"/><path class="cls-2" d="M110.71,63.31a48.79,48.79,0,0,1-50.23,41.34,53.74,53.74,0,0,0,5.31,1.13A48.8,48.8,0,0,0,80.62,9.32a50.22,50.22,0,0,0-5.41-.52A48.79,48.79,0,0,1,110.71,63.31Z"/><path class="cls-3" d="M57.37,22.48a48.8,48.8,0,0,1,48.49,43.37,51.07,51.07,0,0,0,.3-5.42A48.79,48.79,0,1,0,8.88,65.85,48.79,48.79,0,0,1,57.37,22.48Z"/><path class="cls-1" d="M139.18,24.37h11.21V36.65H139.18Zm11.21,21.57V91.29l-11.21,1V47.13Z"/><path class="cls-1" d="M199.71,63V91.29l-11.27,1V65.42q0-4.37-1.73-6.68a5.86,5.86,0,0,0-5-2.33A6.7,6.7,0,0,0,176,59q-1.95,2.58-1.95,7.62V91.29l-11.27,1V47.13l11.27-1.19V51a17.62,17.62,0,0,1,5.72-4.22,16.08,16.08,0,0,1,6.79-1.45q6.63,0,9.88,4.36T199.71,63Z"/><path class="cls-1" d="M244.55,51.88a18,18,0,0,1,5.86-4.78,15.86,15.86,0,0,1,7.17-1.61q6.56,0,9.76,4.33T270.54,63V91.29l-11.27,1V65.42A11.42,11.42,0,0,0,257.75,59a5,5,0,0,0-4.36-2.24,6,6,0,0,0-5.18,2.5q-1.78,2.49-1.79,7.36V91.29l-11.27,1V65.42A11.7,11.7,0,0,0,233.68,59a4.84,4.84,0,0,0-4.3-2.24,6,6,0,0,0-5.18,2.5q-1.78,2.49-1.79,7.36V91.29l-11.26,1V47.13l11.26-1.19V51A18.72,18.72,0,0,1,227.85,47a13.18,13.18,0,0,1,12.32.11A11.24,11.24,0,0,1,244.55,51.88Z"/><path class="cls-1" d="M314.82,61.74V91.18l-10.3,1.13V88a12.94,12.94,0,0,1-4.59,3.63,14.26,14.26,0,0,1-6.12,1.24,14.09,14.09,0,0,1-10.58-4.41,15.33,15.33,0,0,1-4.25-11A15.55,15.55,0,0,1,283.26,66a14.9,14.9,0,0,1,11.18-4.39,14.68,14.68,0,0,1,5.55,1,10.54,10.54,0,0,1,4.07,2.92v-4q0-3.23-1.75-4.47c-1.17-.83-3.31-1.25-6.4-1.25a30.32,30.32,0,0,0-5.35.48,39.11,39.11,0,0,0-5.41,1.39l2.66-10.76q3.63-.51,6.37-.73c1.83-.15,3.47-.23,4.9-.23q8.61,0,12.17,3.14T314.82,61.74ZM297,70.63a7.21,7.21,0,0,0-5.07,1.84,6,6,0,0,0,0,8.91,8,8,0,0,0,10.16,0,5.91,5.91,0,0,0,0-8.91A7.19,7.19,0,0,0,297,70.63Z"/><path class="cls-1" d="M349.81,46.28v11c-4.64.08-7.83.94-9.57,2.61s-2.6,4.77-2.6,9.34v22l-11.27,1V47.13l11.27-1.19v5.83a13.44,13.44,0,0,1,5.15-4.13A16.81,16.81,0,0,1,349.81,46.28Z"/><path class="cls-1" d="M344.76,27.36a5.26,5.26,0,1,1-5.44,5.24,5.25,5.25,0,0,1,5.44-5.24Zm-.06,1.05a4.2,4.2,0,0,0,.06,8.39,4,4,0,0,0,4-4.2,4,4,0,0,0-4-4.19Zm-.8,6.91h-1.22V30.11a10,10,0,0,1,2-.19,3,3,0,0,1,1.82.41,1.44,1.44,0,0,1,.52,1.12A1.35,1.35,0,0,1,346,32.7v.06a1.51,1.51,0,0,1,1,1.28,3.44,3.44,0,0,0,.38,1.28H346a4.16,4.16,0,0,1-.42-1.24c-.09-.58-.41-.84-1.08-.84h-.58Zm0-2.94h.58c.67,0,1.21-.22,1.21-.77s-.35-.8-1.12-.8a2.45,2.45,0,0,0-.67.07Z"/></svg>